<svg aria-hidden="true" style="position: absolute; width: 0; height: 0; overflow: hidden;" version="1.1" xmlns="http://www.w3.org/2000/svg" xmlns:xlink="http://www.w3.org/1999/xlink">
<defs>
<symbol id="icon-muffin" viewBox="0 0 38 32">
<path d="M11.906 3.533c-0.061 0.153-0.407 0.376-1.005 0.606-0.629 0.223-1.742 0.307-2.624 0.813-0.905 0.491-1.811 1.673-2.624 2.217-0.829 0.514-1.749 0.414-2.225 1.005-0.491 0.598-0.1 1.726-0.606 2.524-0.537 0.76-2.033 1.358-2.417 2.125-0.407 0.752-0.698 1.557 0.1 2.417 0.798 0.836 2.317 1.711 4.642 2.624 0.852 3.652 1.519 6.429 2.117 8.477 0.568 2.010 1.005 3.223 1.312 3.637-0.008 0.606 0.982 1.066 3.030 1.411 2.056 0.345 6.529 0.645 9.184 0.606 2.632-0.061 4.726-0.406 6.46-1.005 0.997-1.182 1.895-2.801 2.723-4.949 0.829-2.156 1.558-4.749 2.217-7.872 1.089-0.138 1.925-0.452 2.624-0.913 0.652-0.484 0.936-1.389 1.411-1.918 0.483-0.545 1.312-0.813 1.419-1.312 0.046-0.552-0.507-1.266-0.913-1.811-0.414-0.545-0.982-0.936-1.412-1.412-0.43-0.514-0.79-0.951-1.113-1.519-0.352-0.583-0.038-1.488-0.805-1.918-0.767-0.445-2.654-0.107-3.736-0.706-1.105-0.621-1.819-2.286-2.823-2.923-1.036-0.644-2.34-0.476-3.23-0.913-0.883-0.476-1.289-1.358-2.018-1.818-0.744-0.491-1.473-0.974-2.424-1.005-1.012-0.023-2.431 0.591-3.429 0.806-1.005 0.192-1.895-0.169-2.524 0.307-0.66 0.468-1.066 1.235-1.312 2.417z"></path>
<path d="M14.76 1.331c-0.56 0.061-0.921-0.123-1.289 0.153-0.399 0.253-0.744 0.928-0.974 1.435-0.238 0.46 0.107 1.159-0.384 1.504-0.529 0.338-1.972 0.391-2.639 0.606-0.691 0.184-0.729 0.192-1.358 0.675-0.675 0.476-1.711 1.696-2.486 2.21-0.79 0.499-1.811 0.176-2.118 0.752-0.33 0.545 0.506 1.857 0.23 2.547-0.292 0.66-2.125 1.074-1.887 1.511 0.23 0.437 1.634 0.575 3.322 1.128 1.696 0.552 4.457 1.603 6.713 2.117 2.217 0.491 6.613 0.629 6.56 0.829-0.107 0.184-4.803 0.491-7.012 0.299-2.24-0.23-4.411-1.044-6.184-1.581-1.788-0.56-3.598-1.619-4.304-1.665-0.698-0.046-0.813 0.806 0.153 1.435 0.967 0.621 3.13 1.611 5.578 2.263 2.432 0.637 5.808 1.289 8.976 1.511 3.153 0.192 6.652 0.069 9.812-0.307 3.146-0.391 7.818-1.719 8.9-2.033 1.028-0.338-1.281-0.046-2.639 0.077-1.381 0.092-5.555 0.706-5.509 0.598 0.069-0.13 4.027-0.775 5.808-1.281 1.742-0.514 4.013-1.266 4.68-1.811 0.645-0.575-0.345-0.974-0.752-1.58-0.438-0.644-1.304-1.312-1.742-2.117-0.445-0.806-0.062-2.141-0.829-2.639-0.813-0.506-2.693 0.169-3.774-0.376-1.066-0.568-1.634-2.317-2.563-2.938-0.966-0.637-2.056-0.33-3.092-0.829-1.059-0.529-2.217-1.749-3.092-2.271-0.883-0.537-1.511-0.829-2.187-0.905-0.691-0.092-1.335 0.345-1.964 0.453-0.665 0.107-1.424 0.146-1.954 0.23z"></path>
<path d="M9.321 29.020c-0.614-1.918-2.816-9.383-2.938-10.265-0.115-0.86 1.926 4.925 2.187 5.133 0.215 0.161-0.944-4.082-0.752-3.997 0.199 0.076 1.55 4.465 1.887 4.527 0.284 0.015-0.253-4.097-0.077-4.227 0.176-0.1 0.76 3.529 1.128 3.544 0.345-0.038 0.721-3.721 0.982-3.621 0.238 0.115 0.245 4.197 0.529 4.227 0.253-0.023 0.767-5.309 1.128-4.227 0.345 1.12 1.135 9.744 0.982 10.718-0.184 0.897-1.634-5.148-1.956-5.21-0.33-0.038 0.192 4.757 0 4.826-0.215 0.008-1.043-4.473-1.212-4.596-0.169-0.1 0.269 3.851 0.153 3.92-0.161 0.008-0.875-3.69-0.982-3.698-0.107 0.007 0.591 3.736 0.376 3.698-0.245-0.107-1.611-4.089-1.734-4.074-0.123 0.061 0.905 3.705 0.982 4.304 0.046 0.552-0.092 0.874-0.683-0.982z"></path>
<path d="M29.016 22.298c-0.299 1.412-1.941 6.33-2.264 6.943-0.345 0.56 0.514-3.391 0.299-3.391-0.261 0.015-1.434 3.391-1.657 3.468-0.223 0.038 0.583-3.192 0.376-3.092-0.238 0.115-1.688 4.695-1.657 3.767 0.023-0.997 1.534-8.639 1.811-9.429 0.261-0.752-0.438 4.887-0.23 4.902 0.192-0.015 1.128-4.895 1.358-4.902 0.176-0.015-0.376 4.772-0.146 4.833 0.23-0.007 1.135-4.066 1.504-4.603 0.337-0.514 0.874 0.076 0.605 1.502z"></path>
<path d="M24.336 21.623c-0.368-1.189-0.69-1.665-1.051-1.511-0.36 0.161-0.713 0.982-1.059 2.494-0.415-1.895-0.783-2.847-1.135-2.946-0.361-0.1-0.675 0.706-0.974 2.417-0.637-1.397-1.112-2.041-1.511-1.964-0.399 0.084-0.675 0.86-0.829 2.417-0.491-1.657-0.89-2.509-1.289-2.639-0.391-0.123-1.059 0.192-1.051 1.887-0.008 1.696 0.606 6.966 0.982 8.148 0.345 1.12 0.721 0.675 1.128-1.366 0.43 1.55 0.798 2.317 1.135 2.417 0.338 0.054 0.583-0.56 0.829-1.956 0.36 1.366 0.698 2.048 0.982 2.11 0.284 0.038 0.545-0.545 0.752-1.811 0.345 1.135 0.698 1.611 1.059 1.511 0.36-0.123 0.683-0.675 1.051-2.194 0.345-1.545 0.652-3.855 0.982-7.009z"></path>
<path d="M7.433 5.796c-0.368-0.061-0.721-0.138-1.059-0.146-0.353-0.015-0.798 0.084-1.013 0-0.245-0.123-0.353-0.338-0.384-0.675-0.107 0.315-0.146 0.568-0.146 0.821 0.008 0.238 0.115 0.376 0.146 0.621-0.031 0.215-0.169 0.568-0.146 0.767 0.031 0.184 0.161 0.315 0.391 0.391 0.453-0.215 0.867-0.483 1.243-0.775 0.361-0.292 0.683-0.637 0.967-1.005z"></path>
<path d="M6.858 5.842c-0.253 0.092-0.537 0.161-0.821 0.146-0.284 0-0.598-0.084-0.913-0.192 0.1 0.215 0.138 0.422 0.146 0.621-0.031 0.184-0.138 0.361-0.146 0.529 0 0.161 0.038 0.261 0.146 0.384 0.169-0.115 0.391-0.292 0.667-0.529 0.253-0.269 0.56-0.56 0.921-0.959z"></path>
<path d="M28.517 5.743c0.023-0.368 0.069-0.713 0.054-1.066-0.031-0.376-0.176-0.752-0.084-1.005 0.084-0.245 0.307-0.391 0.637-0.437-0.322-0.061-0.575-0.115-0.821-0.077-0.245 0.015-0.391 0.161-0.614 0.199-0.253 0.031-0.591-0.161-0.775-0.077-0.176 0.054-0.323 0.192-0.353 0.414 0.253 0.445 0.544 0.829 0.875 1.182 0.324 0.33 0.684 0.629 1.085 0.867z"></path>
<path d="M28.425 5.175c-0.131-0.253-0.192-0.522-0.215-0.806-0.023-0.299 0.015-0.598 0.115-0.928-0.207 0.107-0.43 0.184-0.606 0.199-0.207 0.008-0.399-0.123-0.545-0.092-0.161 0.015-0.284 0.061-0.368 0.169 0.122 0.161 0.307 0.391 0.583 0.629 0.286 0.238 0.592 0.514 1.038 0.829z"></path>
<path d="M18.957 4.914c-0.146-0.43-0.345-0.798-0.568-1.074-0.238-0.269-0.683-0.414-0.798-0.614-0.107-0.23-0.092-0.499 0.107-0.775-0.276 0.184-0.46 0.361-0.614 0.56-0.153 0.176-0.146 0.399-0.269 0.583-0.153 0.184-0.437 0.299-0.583 0.522-0.161 0.207-0.292 0.476-0.361 0.775 0.583-0.238 1.135-0.353 1.657-0.345 0.506 0 0.982 0.123 1.427 0.368z"></path>
<path d="M18.496 4.453c-0.199-0.169-0.384-0.353-0.583-0.552-0.207-0.223-0.407-0.46-0.598-0.713-0.061 0.238-0.161 0.422-0.269 0.583-0.153 0.13-0.292 0.192-0.445 0.33-0.153 0.115-0.284 0.299-0.422 0.468 0.422-0.215 0.829-0.345 1.22-0.361 0.399-0.023 0.737 0.069 1.097 0.245z"></path>
<path d="M9.528 10.484c0.138-0.437 0.338-0.783 0.568-1.066 0.215-0.292 0.667-0.399 0.798-0.621 0.1-0.238 0.084-0.483-0.107-0.767 0.269 0.184 0.453 0.361 0.614 0.56 0.13 0.176 0.13 0.399 0.269 0.583 0.13 0.184 0.422 0.299 0.583 0.522 0.153 0.207 0.284 0.468 0.361 0.783-0.591-0.245-1.143-0.353-1.657-0.353-0.514-0.008-0.99 0.123-1.427 0.361z"></path>
<path d="M9.988 10.031c0.184-0.169 0.376-0.353 0.575-0.552 0.199-0.223 0.391-0.46 0.606-0.713 0.054 0.238 0.153 0.422 0.269 0.583 0.107 0.13 0.284 0.192 0.437 0.33 0.153 0.115 0.269 0.299 0.43 0.468-0.422-0.23-0.859-0.353-1.228-0.368-0.376-0.023-0.767 0.061-1.089 0.253z"></path>
<path d="M23.038 8.873c0.391-0.245 0.768-0.376 1.128-0.453 0.368-0.069 0.744 0.123 1.005 0.038 0.223-0.123 0.368-0.315 0.407-0.66 0.077 0.307 0.115 0.583 0.115 0.829-0.015 0.223-0.13 0.437-0.169 0.614-0.069 0.169 0 0.338-0.115 0.445-0.13 0.077-0.33 0.13-0.629 0.1 0.008-0.038-0.13-0.13-0.414-0.276-0.307-0.146-0.729-0.368-1.328-0.637z"></path>
<path d="M23.683 8.819c0.261-0.008 0.499-0.015 0.805-0.054 0.276-0.031 0.591-0.092 0.913-0.153-0.046 0.269-0.13 0.453-0.169 0.614-0.069 0.146-0.092 0.207-0.161 0.269-0.092 0.038-0.161 0.038-0.292 0-0.169-0.13-0.345-0.215-0.529-0.338-0.183-0.13-0.384-0.215-0.567-0.338z"></path>
<path d="M19.256 11.995c-0.406-0.238-0.782-0.391-1.128-0.46-0.384-0.084-0.767 0.138-1.005 0.046-0.245-0.1-0.384-0.33-0.414-0.66-0.1 0.315-0.107 0.568-0.107 0.821-0.008 0.238 0.107 0.445 0.169 0.621 0.046 0.169-0.023 0.338 0.115 0.445 0.123 0.077 0.322 0.13 0.629 0.1-0.015-0.038 0.123-0.13 0.414-0.276 0.299-0.146 0.721-0.368 1.327-0.637z"></path>
<path d="M18.611 11.942c-0.253-0.008-0.522-0.015-0.806-0.054-0.292-0.031-0.598-0.092-0.921-0.153 0.054 0.269 0.123 0.453 0.176 0.614 0.046 0.146 0.069 0.207 0.161 0.269 0.077 0.038 0.161 0.038 0.284 0 0.161-0.13 0.338-0.215 0.529-0.338 0.176-0.13 0.368-0.215 0.575-0.338z"></path>
<path d="M24.956 14.527c0.169-0.506 0.368-0.875 0.629-1.197 0.261-0.315 0.736-0.445 0.89-0.683 0.13-0.269 0.092-0.545-0.115-0.859 0.284 0.199 0.522 0.407 0.683 0.621 0.161 0.199 0.123 0.445 0.299 0.652 0.161 0.199 0.445 0.322 0.644 0.575 0.176 0.253 0.299 0.514 0.399 0.867-0.668-0.261-1.282-0.399-1.842-0.384-0.582-0.008-1.112 0.138-1.588 0.407z"></path>
<path d="M25.469 14.021c0.207-0.192 0.422-0.399 0.645-0.621 0.222-0.245 0.437-0.499 0.675-0.79 0.069 0.253 0.146 0.468 0.291 0.644 0.123 0.138 0.315 0.23 0.491 0.368 0.161 0.146 0.307 0.322 0.468 0.529-0.483-0.261-0.936-0.399-1.358-0.414-0.445-0.038-0.823 0.084-1.215 0.284z"></path>
</symbol>
</defs>
</svg>
